<svg xmlns="http://www.w3.org/2000/svg" version="1.1" viewBox="0 0 32 32">
  <style>
    :root { color: #000; }
    @media (prefers-color-scheme: dark) {
      :root { color: #fff; }
    }
  </style>
  <path d="M7.83,22.42c.2.23.48.39,1.05.71l1.25.72c.56.32.84.49,1.14.55.26.06.54.06.8,0,.3-.06.58-.23,1.14-.55l6.55-3.78c.19-.11.28-.16.32-.24.03-.06.03-.13,0-.2-.03-.07-.13-.13-.32-.24l-1.44-.83c-.14-.08-.21-.12-.29-.14-.07-.01-.13-.01-.2,0-.07.02-.14.06-.29.14l-5.49,3.17c-.14.08-.21.12-.29.14-.07.01-.13.01-.2,0-.07-.02-.14-.06-.29-.14l-1.16-.67c-.14-.08-.21-.12-.26-.18-.05-.05-.08-.11-.1-.17-.02-.07-.02-.15-.02-.32v-11.34c0-.16,0-.24.02-.32.02-.06.05-.12.1-.17.05-.06.12-.1.26-.18l5.49-3.17c.14-.08.21-.12.29-.14.07-.01.13-.01.2,0,.07.02.14.06.29.14l7.71,4.45c.19.11.28.16.36.16.07,0,.13-.04.17-.1.05-.06.05-.17.05-.39v-.33c0-.65,0-.97-.09-1.26-.08-.26-.22-.49-.4-.69-.2-.23-.48-.39-1.05-.71l-5.59-3.22c-.56-.32-.84-.49-1.14-.55-.26-.06-.54-.06-.8,0-.3.06-.58.23-1.14.55l-5.59,3.22c-.56.32-.84.49-1.05.71-.18.2-.32.44-.4.69-.09.29-.09.61-.09,1.26v11.45c0,.65,0,.97.09,1.26.08.26.22.49.4.69Z" fill="currentColor"/>
  <path d="M24.17,22.43c.18-.2.32-.44.4-.69.09-.29.09-.61.09-1.26v-1.45c0-.65,0-.97-.1-1.26-.08-.26-.22-.49-.4-.69-.2-.23-.48-.39-1.05-.71l-6.55-3.78c-.19-.11-.28-.16-.36-.16-.07,0-.13.04-.17.1-.05.06-.05.17-.05.39v1.67c0,.16,0,.24.02.32.02.06.06.12.1.17.05.06.12.1.26.18l5.49,3.17c.14.08.21.12.26.18.05.05.08.11.1.17.02.07.02.15.02.32v1.33c0,.16,0,.24-.02.32-.02.06-.05.12-.1.17-.05.06-.12.1-.26.18l-9.82,5.67c-.14.08-.21.12-.28.14-.07.01-.13.01-.2,0-.07-.02-.14-.06-.29-.14l-5.49-3.17c-.14-.08-.21-.12-.26-.18-.05-.05-.08-.11-.1-.17-.02-.07-.02-.15-.02-.32v-8.9c0-.22,0-.33-.05-.39-.04-.06-.1-.09-.17-.1-.08,0-.17.05-.36.16l-.29.17c-.56.32-.84.49-1.05.71-.18.2-.32.44-.4.69-.09.29-.09.61-.09,1.26v6.45c0,.65,0,.97.1,1.26.08.26.22.49.4.69.2.23.48.39,1.05.71l5.59,3.23c.56.32.84.49,1.14.55.26.06.54.06.8,0,.3-.06.58-.23,1.14-.55l9.91-5.72c.56-.32.84-.49,1.05-.71Z" fill="currentColor"/>
  <path d="M28.91,15.26c-.08-.26-.22-.49-.4-.69-.2-.23-.48-.39-1.05-.71l-9.91-5.72c-.56-.32-.84-.49-1.14-.55-.26-.06-.54-.06-.8,0-.3.06-.58.23-1.14.55l-1.25.72c-.56.32-.84.49-1.05.71-.18.2-.32.44-.4.69-.09.29-.09.61-.09,1.26v7.56c0,.22,0,.33.04.39.04.06.1.09.17.1.08,0,.17-.05.36-.16l1.44-.83c.14-.08.21-.12.26-.18.05-.05.08-.11.1-.17.02-.07.02-.15.02-.32v-6.34c0-.16,0-.24.03-.32.02-.06.06-.12.1-.17.05-.06.12-.1.26-.18l1.16-.67c.14-.08.21-.12.28-.14.07-.01.13-.01.2,0,.07.02.14.06.28.14l9.82,5.67c.14.08.21.12.26.18.05.05.08.11.1.17.02.07.02.15.02.32v6.34c0,.16,0,.24-.03.32-.02.06-.06.12-.1.17-.05.06-.12.1-.26.18l-7.7,4.45c-.19.11-.28.16-.32.24-.03.06-.03.13,0,.2.03.07.13.13.32.24l.29.17c.56.32.84.49,1.14.55.26.06.54.06.8,0,.3-.06.58-.23,1.14-.55l5.59-3.23c.56-.32.84-.49,1.05-.71.18-.2.32-.44.4-.69.09-.29.09-.61.09-1.26v-6.45c0-.65,0-.97-.09-1.26Z" fill="currentColor"/>
</svg>