<svg xmlns="http://www.w3.org/2000/svg" version="1.1" viewBox="0 0 32 32">
  <style>
    :root {
      color: black;
    }
    @media (prefers-color-scheme: dark) {
      :root {
        color: white;
      }
    }
  </style>
  <path d="M7.2,21.57c.22.24.52.42,1.13.77l1.35.78c.6.35.91.52,1.23.59.28.06.58.06.86,0,.32-.07.62-.24,1.23-.59l7.05-4.07c.2-.12.31-.18.34-.25.03-.07.03-.14,0-.21-.03-.08-.14-.14-.34-.25l-1.56-.9c-.15-.09-.23-.13-.31-.15-.07-.02-.14-.02-.22,0-.08.02-.16.06-.31.15l-5.91,3.41c-.15.09-.23.13-.31.15-.07.02-.14.02-.22,0-.08-.02-.16-.06-.31-.15l-1.24-.72c-.15-.09-.23-.13-.28-.19-.05-.05-.09-.12-.11-.19-.03-.08-.03-.17-.03-.34V7.2c0-.17,0-.26.03-.34.02-.07.06-.13.11-.19.05-.06.13-.1.28-.19l5.91-3.41c.15-.09.23-.13.31-.15.07-.02.14-.02.22,0,.08.02.16.06.31.15l8.3,4.79c.2.12.31.18.39.17.07,0,.14-.05.18-.11.05-.07.05-.19.05-.42v-.36c0-.7,0-1.05-.1-1.36-.09-.28-.24-.53-.43-.75-.22-.24-.52-.42-1.13-.77l-6.01-3.47c-.6-.35-.91-.52-1.23-.59-.28-.06-.58-.06-.86,0-.32.07-.62.24-1.23.59l-6.01,3.47c-.6.35-.91.52-1.13.77-.19.22-.34.47-.43.75-.1.31-.1.66-.1,1.36v12.32c0,.7,0,1.05.1,1.36.09.28.24.53.43.75Z"/>
  <path d="M24.79,21.58c.19-.22.34-.47.43-.75.1-.31.1-.66.1-1.36v-1.56c0-.7,0-1.05-.1-1.36-.09-.28-.24-.53-.43-.75-.22-.24-.52-.42-1.13-.77l-7.05-4.07c-.2-.12-.31-.18-.39-.17-.07,0-.14.05-.18.11-.05.07-.05.19-.05.42v1.8c0,.17,0,.26.03.34.02.07.06.13.11.19.05.06.13.1.28.19l5.91,3.41c.15.09.23.13.28.19.05.05.09.12.11.19.03.08.03.17.03.34v1.44c0,.17,0,.26-.02.34-.02.07-.06.13-.11.19-.05.06-.13.1-.28.19l-10.57,6.1c-.15.09-.23.13-.31.15-.07.02-.14.02-.22,0-.08-.02-.16-.06-.31-.15l-5.91-3.41c-.15-.09-.23-.13-.28-.19-.05-.05-.09-.12-.11-.19-.03-.08-.03-.17-.03-.34v-9.58c0-.24,0-.35-.05-.42-.04-.06-.11-.1-.18-.11-.08,0-.19.05-.39.17l-.31.18c-.6.35-.91.52-1.13.77-.19.22-.34.47-.43.75-.1.31-.1.66-.1,1.36v6.94c0,.7,0,1.05.1,1.36.09.28.24.53.43.75.22.24.52.42,1.13.77l6.01,3.47c.6.35.91.52,1.23.59.28.06.58.06.86,0,.32-.07.62-.24,1.23-.59l10.67-6.16c.6-.35.91-.52,1.13-.77Z"/>
  <path d="M29.89,13.86c-.09-.28-.24-.53-.43-.75-.22-.24-.52-.42-1.13-.77l-10.67-6.16c-.6-.35-.91-.52-1.23-.59-.28-.06-.58-.06-.86,0-.32.07-.62.24-1.23.59l-1.35.78c-.6.35-.91.52-1.13.77-.19.22-.34.47-.43.75-.1.31-.1.66-.1,1.36v8.14c0,.24,0,.35.05.42.04.06.11.1.18.11.08,0,.19-.05.39-.17l1.55-.9c.15-.09.23-.13.28-.19.05-.05.09-.12.11-.19.03-.08.03-.17.03-.34v-6.82c0-.17,0-.26.03-.34.02-.07.06-.13.11-.19.05-.06.13-.1.28-.19l1.24-.72c.15-.09.23-.13.31-.15.07-.02.14-.02.22,0,.08.02.16.06.31.15l10.57,6.1c.15.09.23.13.28.19.05.05.09.12.11.19.03.08.03.17.03.34v6.82c0,.17,0,.26-.03.34-.02.07-.06.13-.11.19-.05.06-.13.1-.28.19l-8.29,4.79c-.2.12-.31.18-.34.25-.03.07-.03.14,0,.21.03.08.14.14.34.25l.31.18c.6.35.91.52,1.23.59.28.06.58.06.86,0,.32-.07.62-.24,1.23-.59l6.01-3.47c.6-.35.91-.52,1.13-.77.19-.22.34-.47.43-.75.1-.31.1-.66.1-1.36v-6.94c0-.7,0-1.05-.1-1.36Z"/>
</svg>